<svg width="137" height="34" viewBox="0 0 137 34" fill="none" xmlns="http://www.w3.org/2000/svg">
<path d="M9.72 2.52C11.808 2.52 13.572 2.892 15.012 3.636C16.452 4.38 17.172 5.592 17.172 7.272C17.172 8.328 16.836 9.144 16.164 9.72C15.492 10.296 14.616 10.584 13.536 10.584C12.792 10.584 12.168 10.452 11.664 10.188C11.832 9.588 11.916 8.892 11.916 8.1C11.916 7.14 11.7 6.396 11.268 5.868C10.86 5.316 10.2 5.04 9.288 5.04C8.496 5.04 7.86 5.256 7.38 5.688C6.924 6.12 6.696 6.732 6.696 7.524C6.696 8.34 6.912 9.072 7.344 9.72C7.776 10.344 8.304 10.884 8.928 11.34C9.576 11.796 10.452 12.348 11.556 12.996C12.852 13.764 13.896 14.448 14.688 15.048C15.504 15.648 16.188 16.404 16.74 17.316C17.316 18.228 17.604 19.32 17.604 20.592C17.604 22.968 16.764 24.768 15.084 25.992C13.404 27.192 11.22 27.792 8.532 27.792C6.3 27.792 4.416 27.396 2.88 26.604C1.368 25.812 0.612 24.528 0.612 22.752C0.612 21.696 0.948 20.844 1.62 20.196C2.316 19.548 3.192 19.224 4.248 19.224C5.04 19.224 5.664 19.356 6.12 19.62C5.952 20.364 5.868 21 5.868 21.528C5.868 24.024 6.9 25.272 8.964 25.272C9.924 25.272 10.704 25.008 11.304 24.48C11.904 23.928 12.204 23.196 12.204 22.284C12.204 21.468 11.988 20.748 11.556 20.124C11.124 19.476 10.584 18.924 9.936 18.468C9.288 17.988 8.424 17.424 7.344 16.776C6.048 16.008 4.992 15.324 4.176 14.724C3.384 14.124 2.7 13.368 2.124 12.456C1.572 11.544 1.296 10.464 1.296 9.216C1.296 7.8 1.68 6.588 2.448 5.58C3.216 4.572 4.236 3.816 5.508 3.312C6.804 2.784 8.208 2.52 9.72 2.52ZM26.197 5.4C26.197 7.848 26.077 9.588 25.837 10.62C26.389 9.708 27.109 9.036 27.997 8.604C28.909 8.148 29.929 7.92 31.057 7.92C33.145 7.92 34.633 8.484 35.521 9.612C36.409 10.716 36.853 12.408 36.853 14.688V23.4C36.853 24.072 36.937 24.66 37.105 25.164C37.273 25.668 37.561 26.112 37.969 26.496C37.705 26.832 37.297 27.084 36.745 27.252C36.217 27.444 35.689 27.54 35.161 27.54C33.913 27.54 32.965 27.228 32.317 26.604C31.669 25.956 31.345 25.008 31.345 23.76V14.976C31.345 13.584 31.201 12.516 30.913 11.772C30.649 11.028 30.037 10.656 29.077 10.656C27.901 10.656 27.121 11.196 26.737 12.276C26.377 13.356 26.197 14.784 26.197 16.56V27H20.689V1.8L26.197 1.224V5.4ZM48.6397 7.92C51.5197 7.92 53.6797 8.772 55.1197 10.476C56.5837 12.18 57.3157 14.544 57.3157 17.568C57.3157 20.688 56.5837 23.172 55.1197 25.02C53.6557 26.868 51.4957 27.792 48.6397 27.792C45.8077 27.792 43.6477 26.904 42.1597 25.128C40.6717 23.352 39.9277 20.952 39.9277 17.928C39.9277 14.856 40.6597 12.42 42.1237 10.62C43.6117 8.82 45.7837 7.92 48.6397 7.92ZM48.6397 25.632C49.8877 25.632 50.6917 24.9 51.0517 23.436C51.4117 21.972 51.5917 20.076 51.5917 17.748C51.5917 15.54 51.3997 13.716 51.0157 12.276C50.6317 10.812 49.8397 10.08 48.6397 10.08C47.4397 10.08 46.6477 10.812 46.2637 12.276C45.8797 13.74 45.6877 15.564 45.6877 17.748C45.6877 20.076 45.8677 21.972 46.2277 23.436C46.5877 24.9 47.3917 25.632 48.6397 25.632ZM66.1345 5.4C66.1345 7.848 66.0145 9.588 65.7745 10.62C66.2785 9.732 66.9745 9.06 67.8625 8.604C68.7505 8.148 69.7345 7.92 70.8145 7.92C73.1905 7.92 74.9065 8.82 75.9625 10.62C77.0185 12.396 77.5465 14.712 77.5465 17.568C77.5465 20.736 76.7785 23.232 75.2425 25.056C73.7305 26.88 71.4865 27.792 68.5105 27.792C67.2385 27.792 65.8705 27.624 64.4065 27.288C62.9425 26.952 61.6825 26.508 60.6265 25.956V1.8L66.1345 1.224V5.4ZM66.1345 24.768C66.9025 25.344 67.7665 25.632 68.7265 25.632C70.0225 25.632 70.8625 24.9 71.2465 23.436C71.6305 21.972 71.8225 20.076 71.8225 17.748C71.8225 15.636 71.6305 13.932 71.2465 12.636C70.8865 11.316 70.1185 10.656 68.9425 10.656C67.7665 10.656 66.9985 11.196 66.6385 12.276C66.3025 13.356 66.1345 14.784 66.1345 16.56V24.768ZM89.7694 5.112C88.2094 5.112 87.1894 6.024 86.7094 7.848C86.2294 9.648 85.9894 11.844 85.9894 14.436C85.9894 17.22 86.3494 19.428 87.0694 21.06C87.8134 22.692 89.1694 23.508 91.1374 23.508C92.3134 23.508 93.3214 23.208 94.1614 22.608C95.0014 22.008 95.6614 21.144 96.1414 20.016C97.0774 20.472 97.5454 21.264 97.5454 22.392C97.5454 23.544 97.1734 24.528 96.4294 25.344C95.6854 26.16 94.7254 26.772 93.5494 27.18C92.3974 27.588 91.1854 27.792 89.9134 27.792C86.3374 27.792 83.7214 26.652 82.0654 24.372C80.4094 22.092 79.5814 19.056 79.5814 15.264C79.5814 11.304 80.4454 8.196 82.1734 5.94C83.9014 3.66 86.5654 2.52 90.1654 2.52C92.3494 2.52 94.1494 2.916 95.5654 3.708C96.9814 4.5 97.6894 5.784 97.6894 7.56C97.6894 8.616 97.3414 9.468 96.6454 10.116C95.9734 10.764 95.1094 11.088 94.0534 11.088C93.2614 11.088 92.6374 10.956 92.1814 10.692C92.3494 9.924 92.4334 9.288 92.4334 8.784C92.4334 6.336 91.5454 5.112 89.7694 5.112ZM103.298 0.503998C104.282 0.503998 105.062 0.731998 105.638 1.188C106.238 1.644 106.538 2.28 106.538 3.096C106.538 3.936 106.226 4.584 105.602 5.04C104.978 5.472 104.174 5.688 103.19 5.688C102.23 5.688 101.438 5.472 100.814 5.04C100.214 4.584 99.9143 3.96 99.9143 3.168C99.9143 2.328 100.226 1.68 100.85 1.224C101.498 0.743998 102.314 0.503998 103.298 0.503998ZM105.89 23.4C105.89 24.072 105.974 24.66 106.142 25.164C106.31 25.668 106.598 26.112 107.006 26.496C106.742 26.832 106.334 27.084 105.782 27.252C105.254 27.444 104.726 27.54 104.198 27.54C102.95 27.54 102.002 27.228 101.354 26.604C100.706 25.956 100.382 25.008 100.382 23.76V8.64H105.89V23.4ZM108.285 10.26V9.144C109.437 8.712 110.601 8.112 111.777 7.344C112.953 6.576 113.925 5.76 114.693 4.896H116.241V8.64H119.553V10.26H116.205V23.076C116.205 23.82 116.337 24.396 116.601 24.804C116.889 25.188 117.345 25.44 117.969 25.56C117.729 26.184 117.285 26.664 116.637 27C115.989 27.36 115.269 27.54 114.477 27.54C113.229 27.54 112.281 27.204 111.633 26.532C111.009 25.86 110.697 24.888 110.697 23.616V10.26H108.285ZM136.565 8.64L128.033 33.948L122.525 33.48L126.413 25.056H124.181L119.609 8.64H125.369L128.465 22.464L131.813 8.64H136.565Z" fill="black"/>
</svg>
