<svg width="24" height="30" viewBox="0 0 24 30" fill="none" xmlns="http://www.w3.org/2000/svg">
<g clip-path="url(#clip0)">
<path d="M23.0325 21.9675L17.895 16.8375C19.5357 14.9234 20.3712 12.4481 20.2261 9.93121C20.081 7.41431 18.9667 5.05145 17.1169 3.3385C15.2671 1.62555 12.8258 0.695694 10.3051 0.744077C7.78452 0.792459 5.38063 1.81532 3.59796 3.59799C1.81529 5.38066 0.792429 7.78455 0.744046 10.3052C0.695664 12.8258 1.62552 15.2672 3.33847 17.1169C5.05142 18.9667 7.41428 20.081 9.93118 20.2261C12.4481 20.3712 14.9233 19.5357 16.8375 17.895L21.9675 23.0325C22.0372 23.1028 22.1202 23.1586 22.2116 23.1967C22.3029 23.2348 22.401 23.2544 22.5 23.2544C22.599 23.2544 22.697 23.2348 22.7884 23.1967C22.8798 23.1586 22.9628 23.1028 23.0325 23.0325C23.1028 22.9628 23.1586 22.8798 23.1967 22.7884C23.2347 22.6971 23.2543 22.599 23.2543 22.5C23.2543 22.401 23.2347 22.303 23.1967 22.2116C23.1586 22.1202 23.1028 22.0372 23.0325 21.9675ZM2.24999 10.5C2.24999 8.86832 2.73384 7.27327 3.64036 5.91656C4.54688 4.55986 5.83536 3.50243 7.34285 2.87801C8.85034 2.25359 10.5091 2.09021 12.1095 2.40854C13.7098 2.72687 15.1798 3.5126 16.3336 4.66639C17.4874 5.82017 18.2731 7.29018 18.5915 8.89052C18.9098 10.4909 18.7464 12.1497 18.122 13.6572C17.4976 15.1646 16.4401 16.4531 15.0834 17.3596C13.7267 18.2662 12.1317 18.75 10.5 18.75C8.31195 18.75 6.21353 17.8808 4.66635 16.3336C3.11918 14.7865 2.24999 12.6881 2.24999 10.5Z" fill="black"/>
</g>
<defs>
<clipPath id="clip0">
<rect width="24" height="30" fill="white"/>
</clipPath>
</defs>
</svg>
